<svg width="40.000000" height="40.000000" viewBox="0 0 40 40" fill="none" xmlns="http://www.w3.org/2000/svg" xmlns:xlink="http://www.w3.org/1999/xlink">
	<desc>
			Created with Pixso.
	</desc>
	<defs>
		<clipPath id="clip37_1007">
			<rect id="Volume/off" rx="0.000000" width="19.000000" height="19.000000" transform="translate(10.500000 10.500000)" fill="white" fill-opacity="0"/>
		</clipPath>
	</defs>
	<g opacity="0.120000">
		<circle id="ellipse" cx="20.000000" cy="20.000000" r="20.000000" fill="#FFFFFF" fill-opacity="1.000000"/>
	</g>
	<g clip-path="url(#clip37_1007)">
		<path id="Vector" d="M26.08 14.41C26.41 14.08 26.91 14.08 27.25 14.41C27.58 14.75 27.58 15.25 27.25 15.58L15.58 27.25C15.25 27.58 14.75 27.58 14.41 27.25C14.08 26.91 14.08 26.41 14.41 26.08L17.16 23.33L16.66 23.33C15.75 23.33 15 22.58 15 21.66L15 18.33C15 17.41 15.75 16.66 16.66 16.66L18.58 16.66C19 16.66 19.33 16.5 19.66 16.33L22 14.41C22.5 14 23.33 14.41 23.33 15.08L23.33 17.16L26.08 14.41ZM23.33 24.91C23.33 25.66 22.58 26 22 25.58L20.25 24.25L23.33 21.16L23.33 24.91Z" fill="#FFFFFF" fill-opacity="1.000000" fill-rule="evenodd"/>
	</g>
</svg>
